<?xml version="1.0" encoding="utf-8"?>
<!-- Generator: Adobe Illustrator 22.0.1, SVG Export Plug-In . SVG Version: 6.00 Build 0)  -->
<svg version="1.1" id="Layer_1" xmlns="http://www.w3.org/2000/svg" xmlns:xlink="http://www.w3.org/1999/xlink" x="0px" y="0px"
	 viewBox="0 0 229 100" style="enable-background:new 0 0 229 100;" xml:space="preserve">
<style type="text/css">
	.st0{fill:#44D7D0;}
</style>
<path class="st0" d="M11.3,14.6c0-1.9,1.7-3.6,3.6-3.6h10.7c1.9,0,3.6,1.7,3.6,3.6V53c0,12.2,5.8,18.7,15.3,18.7
	c11,0,18-9,18.5-12.4V14.6c0-3,1.5-3.6,4.1-3.6h9.7c1.9,0,3.6,1.7,3.6,3.6v67.8c0,1.9-1.7,3.6-3.6,3.6h-5.2c-1.9,0-2.8-1.3-3.4-3
	l-1.9-5.4c-1.7,1.5-9.5,10.3-24.7,10.3c-22.5,0-30.3-15.9-30.3-35.4C11.3,52.5,11.3,14.6,11.3,14.6z"/>
<path class="st0" d="M122.2,9.2c19.5,0,34.4,14.6,34.4,34.6c0,1.3-0.2,3.7-0.4,5.1c-0.2,1.9-1.7,3.2-3.4,3.2H102
	c0.6,10.1,9.4,20,21.5,20c6.7,0,12.9-3,16.7-5.4c2.2-1.3,3.6-2.1,5.1-0.2l5.2,7.1c1.3,1.5,1.9,3-0.4,4.9c-5.4,4.7-15.2,9.4-27.7,9.4
	c-22.6,0-37.6-17.8-37.6-39.3C84.8,27.3,99.7,9.2,122.2,9.2z M139.2,40.2c-0.6-9-8-16.7-17.2-16.7c-10.1,0-18,7.3-19.1,16.7H139.2z"
	/>
<path class="st0" d="M158.9,79.1c2.1,0,3.8,1.7,3.8,3.8c0,2.1-1.7,3.7-3.8,3.7s-3.7-1.7-3.7-3.7C155.2,80.8,156.9,79.1,158.9,79.1z"
	/>
<path class="st0" d="M177.5,63.9c3.3,0,5.8,1.4,7.8,3.8c0.4,0.5,0.3,1.1-0.2,1.5l-1.8,1.6c-0.6,0.6-1,0.2-1.5-0.2
	c-1-1.1-2.5-2.1-4.3-2.1c-3.5,0-6.3,3-6.3,6.7s2.7,6.7,6.2,6.7c2.8,0,3.9-1.4,5-2.5c0.5-0.5,1-0.5,1.5-0.1l1.5,1.2
	c0.5,0.4,0.8,1,0.4,1.5c-1.7,2.8-4.7,4.5-8.4,4.5c-6.1,0-11.3-4.8-11.3-11.3C166.2,68.9,171.5,63.9,177.5,63.9z"/>
<path class="st0" d="M197.6,63.9c6.1,0,10.9,5.2,10.9,11.3c0,6.2-4.9,11.4-10.9,11.4c-6.1,0-10.9-5.2-10.9-11.4
	C186.6,69.1,191.5,63.9,197.6,63.9z M197.6,82c3.4,0,6.1-3,6.1-6.8c0-3.6-2.7-6.6-6.1-6.6c-3.4,0-6.1,3-6.1,6.6
	C191.5,78.9,194.2,82,197.6,82z"/>
<path class="st0" d="M210.5,63h-1.3c-0.1,0-0.1,0-0.1-0.1v-0.1c0-0.1,0-0.1,0.1-0.1h2.9c0.1,0,0.1,0,0.1,0.1v0.1c0,0,0,0.1-0.1,0.1
	h-1.3v4.4c0,0,0,0.1-0.1,0.1h-0.1c0,0-0.1,0-0.1-0.1L210.5,63L210.5,63z"/>
<path class="st0" d="M213.5,62.6L213.5,62.6h0.1h0.1l1.4,4.2l0,0l1.4-4.2c0,0,0,0,0.1,0h0.1h0.1l1,4.7c0,0.1,0,0.1-0.1,0.1h-0.2
	c0,0-0.1,0-0.1-0.1l-0.8-4l0,0l-1.4,4.1l-0.1,0.1l0,0c0,0-0.1,0-0.1-0.1l-1.4-4.1l0,0l-0.8,4c0,0,0,0.1-0.1,0.1h-0.2
	c-0.1,0-0.1,0-0.1-0.1L213.5,62.6z"/>
</svg>
